<mxfile host="Electron" modified="2023-10-29T14:32:06.404Z" agent="Mozilla/5.0 (Macintosh; Intel Mac OS X 10_15_7) AppleWebKit/537.36 (KHTML, like Gecko) draw.io/22.0.3 Chrome/114.0.5735.289 Electron/25.8.4 Safari/537.36" etag="lqVzA1euThjhIqjTYLjL" version="22.0.3" type="device">
  <diagram name="Page-1" id="vD6Ym8DauYCPMJ_Y6HFY">
    <mxGraphModel dx="1242" dy="878" grid="0" gridSize="10" guides="1" tooltips="1" connect="1" arrows="1" fold="1" page="1" pageScale="1" pageWidth="827" pageHeight="1169" math="0" shadow="0">
      <root>
        <mxCell id="0" />
        <mxCell id="1" parent="0" />
        <mxCell id="Fm2IcAY8o6z702FVles0-12" value="" style="rounded=0;orthogonalLoop=1;jettySize=auto;html=1;" parent="1" source="Fm2IcAY8o6z702FVles0-1" target="Fm2IcAY8o6z702FVles0-7" edge="1">
          <mxGeometry relative="1" as="geometry" />
        </mxCell>
        <mxCell id="Fm2IcAY8o6z702FVles0-1" value="App 1" style="rounded=1;whiteSpace=wrap;html=1;fillColor=#f5f5f5;fontColor=#333333;strokeColor=#666666;" parent="1" vertex="1">
          <mxGeometry x="40" y="120" width="120" height="60" as="geometry" />
        </mxCell>
        <mxCell id="Fm2IcAY8o6z702FVles0-23" value="" style="rounded=0;orthogonalLoop=1;jettySize=auto;html=1;" parent="1" source="Fm2IcAY8o6z702FVles0-2" target="Fm2IcAY8o6z702FVles0-5" edge="1">
          <mxGeometry relative="1" as="geometry">
            <mxPoint x="680" y="320" as="targetPoint" />
          </mxGeometry>
        </mxCell>
        <mxCell id="Fm2IcAY8o6z702FVles0-2" value="Prometheus&lt;br&gt;&lt;br&gt;:9090" style="rounded=1;whiteSpace=wrap;html=1;fillColor=#dae8fc;strokeColor=#6c8ebf;" parent="1" vertex="1">
          <mxGeometry x="480" y="290" width="120" height="60" as="geometry" />
        </mxCell>
        <mxCell id="Fm2IcAY8o6z702FVles0-21" value="" style="rounded=0;orthogonalLoop=1;jettySize=auto;html=1;" parent="1" source="Fm2IcAY8o6z702FVles0-3" target="Fm2IcAY8o6z702FVles0-5" edge="1">
          <mxGeometry relative="1" as="geometry">
            <mxPoint x="680" y="120" as="targetPoint" />
          </mxGeometry>
        </mxCell>
        <mxCell id="Fm2IcAY8o6z702FVles0-3" value="Loki&lt;br&gt;&lt;br&gt;:3100" style="rounded=1;whiteSpace=wrap;html=1;fillColor=#ffe6cc;strokeColor=#d79b00;" parent="1" vertex="1">
          <mxGeometry x="480" y="90" width="120" height="60" as="geometry" />
        </mxCell>
        <mxCell id="Fm2IcAY8o6z702FVles0-19" value="" style="rounded=0;orthogonalLoop=1;jettySize=auto;html=1;" parent="1" source="Fm2IcAY8o6z702FVles0-4" target="Fm2IcAY8o6z702FVles0-5" edge="1">
          <mxGeometry relative="1" as="geometry" />
        </mxCell>
        <mxCell id="Fm2IcAY8o6z702FVles0-4" value="Tempo&lt;br&gt;&lt;br&gt;:3200" style="rounded=1;whiteSpace=wrap;html=1;fillColor=#fff2cc;strokeColor=#d6b656;" parent="1" vertex="1">
          <mxGeometry x="480" y="190" width="120" height="60" as="geometry" />
        </mxCell>
        <mxCell id="Fm2IcAY8o6z702FVles0-5" value="Grafana&lt;br&gt;:3000" style="rounded=1;whiteSpace=wrap;html=1;fillColor=#f8cecc;strokeColor=#b85450;" parent="1" vertex="1">
          <mxGeometry x="680" y="190" width="120" height="60" as="geometry" />
        </mxCell>
        <mxCell id="Fm2IcAY8o6z702FVles0-16" value="" style="rounded=0;orthogonalLoop=1;jettySize=auto;html=1;" parent="1" source="Fm2IcAY8o6z702FVles0-7" target="Fm2IcAY8o6z702FVles0-3" edge="1">
          <mxGeometry relative="1" as="geometry" />
        </mxCell>
        <mxCell id="Fm2IcAY8o6z702FVles0-17" value="" style="rounded=0;orthogonalLoop=1;jettySize=auto;html=1;" parent="1" source="Fm2IcAY8o6z702FVles0-7" target="Fm2IcAY8o6z702FVles0-2" edge="1">
          <mxGeometry relative="1" as="geometry" />
        </mxCell>
        <mxCell id="Fm2IcAY8o6z702FVles0-18" value="" style="edgeStyle=orthogonalEdgeStyle;rounded=0;orthogonalLoop=1;jettySize=auto;html=1;" parent="1" source="Fm2IcAY8o6z702FVles0-7" target="Fm2IcAY8o6z702FVles0-4" edge="1">
          <mxGeometry relative="1" as="geometry" />
        </mxCell>
        <mxCell id="Fm2IcAY8o6z702FVles0-7" value="OpenTelemetry Collector&lt;br&gt;&lt;br&gt;&lt;div style=&quot;&quot;&gt;&lt;span style=&quot;background-color: initial;&quot;&gt;:4317 (gRPC)&lt;/span&gt;&lt;/div&gt;" style="rounded=1;whiteSpace=wrap;html=1;fillColor=#e1d5e7;strokeColor=#9673a6;" parent="1" vertex="1">
          <mxGeometry x="270" y="180" width="120" height="80" as="geometry" />
        </mxCell>
        <mxCell id="Fm2IcAY8o6z702FVles0-8" value="" style="endArrow=none;dashed=1;html=1;dashPattern=1 3;strokeWidth=2;rounded=0;" parent="1" edge="1">
          <mxGeometry width="50" height="50" relative="1" as="geometry">
            <mxPoint x="230" y="440" as="sourcePoint" />
            <mxPoint x="230" y="20" as="targetPoint" />
          </mxGeometry>
        </mxCell>
        <mxCell id="Fm2IcAY8o6z702FVles0-9" value="" style="endArrow=none;dashed=1;html=1;dashPattern=1 3;strokeWidth=2;rounded=0;" parent="1" edge="1">
          <mxGeometry width="50" height="50" relative="1" as="geometry">
            <mxPoint x="440" y="440" as="sourcePoint" />
            <mxPoint x="440" y="20" as="targetPoint" />
          </mxGeometry>
        </mxCell>
        <mxCell id="Fm2IcAY8o6z702FVles0-11" value="" style="rounded=0;orthogonalLoop=1;jettySize=auto;html=1;" parent="1" source="Fm2IcAY8o6z702FVles0-10" target="Fm2IcAY8o6z702FVles0-7" edge="1">
          <mxGeometry relative="1" as="geometry" />
        </mxCell>
        <mxCell id="Fm2IcAY8o6z702FVles0-10" value="App 2" style="rounded=1;whiteSpace=wrap;html=1;fillColor=#d5e8d4;strokeColor=#82b366;" parent="1" vertex="1">
          <mxGeometry x="40" y="240" width="120" height="60" as="geometry" />
        </mxCell>
        <mxCell id="Fm2IcAY8o6z702FVles0-13" value="Grafana Observabiltiy Infrastructure" style="text;html=1;strokeColor=none;fillColor=none;align=center;verticalAlign=middle;whiteSpace=wrap;rounded=0;" parent="1" vertex="1">
          <mxGeometry x="500" y="20" width="260" height="30" as="geometry" />
        </mxCell>
        <mxCell id="Fm2IcAY8o6z702FVles0-14" value="OpenTelemetry Infrastructure" style="text;html=1;strokeColor=none;fillColor=none;align=center;verticalAlign=middle;whiteSpace=wrap;rounded=0;" parent="1" vertex="1">
          <mxGeometry x="210" y="20" width="260" height="30" as="geometry" />
        </mxCell>
        <mxCell id="Fm2IcAY8o6z702FVles0-15" value="Apps" style="text;html=1;strokeColor=none;fillColor=none;align=center;verticalAlign=middle;whiteSpace=wrap;rounded=0;" parent="1" vertex="1">
          <mxGeometry x="10" y="20" width="180" height="30" as="geometry" />
        </mxCell>
      </root>
    </mxGraphModel>
  </diagram>
</mxfile>
